<svg xmlns="http://www.w3.org/2000/svg" viewBox="0 0 282.8 152.4" role="img" aria-label="Arkhe">
  <g transform="translate(18.0,110.8)">
    <path fill="#ffffff" d="M43.1640625 -12.79296875 41.2109375 -7.373046875Q39.697265625 -3.173828125 35.05859375 -0.48828125Q32.03125 1.26953125 26.66015625 1.220703125Q17.041015625 1.123046875 11.03515625 -6.34765625Q4.98046875 -13.96484375 4.98046875 -26.171875Q4.98046875 -38.134765625 11.03515625 -45.947265625Q16.748046875 -53.3203125 28.80859375 -53.271484375Q37.109375 -53.271484375 41.30859375 -50.0Q45.01953125 -47.119140625 46.435546875 -40.8203125L46.826171875 -39.013671875L48.73046875 -44.43359375Q50.48828125 -49.560546875 55.517578125 -52.099609375H60.44921875V-49.21875Q55.76171875 -47.75390625 54.1015625 -43.1640625L49.0234375 -29.296875L52.44140625 -14.35546875Q54.19921875 -6.689453125 56.0546875 -5.859375Q58.740234375 -4.638671875 64.84375 -8.30078125V-2.392578125Q54.931640625 3.3203125 47.94921875 -2.63671875Q44.775390625 -5.37109375 43.896484375 -9.326171875ZM41.064453125 -22.36328125 37.98828125 -36.71875Q35.546875 -48.14453125 28.90625 -48.193359375Q23.291015625 -48.2421875 19.04296875 -42.236328125Q15.478515625 -37.3046875 15.478515625 -25.9765625Q15.478515625 -15.234375 19.04296875 -9.716796875Q22.8515625 -3.7109375 29.443359375 -4.19921875Q35.05859375 -4.638671875 39.111328125 -16.6015625ZM31.396484375 -82.91015625Q34.716796875 -82.91015625 36.62109375 -80.224609375Q37.890625 -78.515625 37.890625 -76.3671875V-75.5859375Q38.330078125 -67.67578125 30.37109375 -60.9375Q30.126953125 -60.7421875 30.029296875 -60.64453125L26.416015625 -62.109375Q30.2734375 -65.8203125 30.76171875 -69.873046875Q28.369140625 -70.068359375 26.7578125 -71.77734375Q24.90234375 -73.6328125 24.90234375 -76.3671875Q24.90234375 -79.78515625 27.5390625 -81.689453125Q29.19921875 -82.91015625 31.396484375 -82.91015625Z M82.8125 -28.515625V-23.388671875Q82.8125 -14.013671875 86.4013671875 -9.1064453125Q89.990234375 -4.19921875 96.826171875 -4.19921875Q103.7109375 -4.19921875 107.2509765625 -9.716796875Q110.791015625 -15.234375 110.791015625 -25.9765625Q110.791015625 -37.158203125 107.275390625 -42.236328125Q103.02734375 -48.193359375 96.826171875 -48.193359375Q90.33203125 -48.193359375 86.376953125 -42.7734375Q82.8125 -37.841796875 82.8125 -28.515625ZM82.8125 20.80078125H73.828125V-25.5859375Q73.828125 -37.841796875 78.076171875 -43.798828125Q82.8125 -49.365234375 86.083984375 -51.07421875Q90.380859375 -53.3203125 96.6796875 -53.3203125Q109.1796875 -53.3203125 115.234375 -45.751953125Q121.2890625 -38.18359375 121.2890625 -25.9765625Q121.2890625 -13.76953125 115.234375 -6.1767578125Q109.1796875 1.416015625 99.609375 1.416015625Q93.603515625 1.416015625 89.5263671875 -0.9033203125Q85.44921875 -3.22265625 82.8125 -8.10546875Z M151.513671875 15.625V20.80078125H127.5390625V15.625H134.326171875L152.44140625 -18.310546875L145.8984375 -40.625Q144.482421875 -45.458984375 142.96875 -46.58203125Q140.91796875 -48.095703125 140.13671875 -48.095703125Q137.20703125 -48.095703125 135.83984375 -46.6796875Q134.423828125 -45.21484375 134.130859375 -41.89453125H129.541015625V-51.806640625Q131.982421875 -52.5390625 134.375 -52.9296875Q136.81640625 -53.3203125 139.111328125 -53.3203125Q142.041015625 -53.3203125 145.5078125 -51.07421875Q149.21875 -48.681640625 150.927734375 -42.822265625L156.103515625 -25.09765625L167.724609375 -46.630859375H161.5234375V-51.85546875H184.716796875V-46.630859375H178.3203125L159.86328125 -12.3046875L166.357421875 9.521484375Q167.822265625 14.35546875 169.287109375 15.478515625Q171.337890625 16.9921875 172.119140625 16.9921875Q175.048828125 16.9921875 176.416015625 15.576171875Q177.83203125 14.111328125 178.125 10.791015625H182.71484375V20.703125Q180.2734375 21.435546875 177.880859375 21.826171875Q175.439453125 22.216796875 173.14453125 22.216796875Q170.21484375 22.216796875 166.748046875 19.970703125Q163.037109375 17.578125 161.328125 11.71875L156.25 -5.517578125L144.921875 15.625Z M199.12109375 0.0V-46.6796875H190.52734375V-51.904296875H208.10546875V-42.67578125Q210.595703125 -47.94921875 214.5751953125 -50.634765625Q218.5546875 -53.3203125 223.828125 -53.3203125Q232.421875 -53.3203125 236.474609375 -48.388671875Q240.52734375 -43.45703125 240.52734375 -33.0078125V20.80078125H231.494140625V-30.17578125Q231.494140625 -39.697265625 229.150390625 -43.2373046875Q226.806640625 -46.77734375 220.8984375 -46.77734375Q214.6484375 -46.77734375 211.376953125 -42.2119140625Q208.10546875 -37.646484375 208.10546875 -28.90625V0.0ZM222.412109375 -79.98046875H232.12890625L215.52734375 -61.62109375H209.814453125Z"/>
  </g>
</svg>
