<svg xmlns="http://www.w3.org/2000/svg" viewBox="0 0 103.5 152.4" role="img" aria-label="Arkhe">
  <g transform="translate(18.0,110.8)">
    <path fill="#1a1a1a" d="M43.1640625 -12.79296875 41.2109375 -7.373046875Q39.697265625 -3.173828125 35.05859375 -0.48828125Q32.03125 1.26953125 26.66015625 1.220703125Q17.041015625 1.123046875 11.03515625 -6.34765625Q4.98046875 -13.96484375 4.98046875 -26.171875Q4.98046875 -38.134765625 11.03515625 -45.947265625Q16.748046875 -53.3203125 28.80859375 -53.271484375Q37.109375 -53.271484375 41.30859375 -50.0Q45.01953125 -47.119140625 46.435546875 -40.8203125L46.826171875 -39.013671875L48.73046875 -44.43359375Q50.48828125 -49.560546875 55.517578125 -52.099609375H60.44921875V-49.21875Q55.76171875 -47.75390625 54.1015625 -43.1640625L49.0234375 -29.296875L52.44140625 -14.35546875Q54.19921875 -6.689453125 56.0546875 -5.859375Q58.740234375 -4.638671875 64.84375 -8.30078125V-2.392578125Q54.931640625 3.3203125 47.94921875 -2.63671875Q44.775390625 -5.37109375 43.896484375 -9.326171875ZM41.064453125 -22.36328125 37.98828125 -36.71875Q35.546875 -48.14453125 28.90625 -48.193359375Q23.291015625 -48.2421875 19.04296875 -42.236328125Q15.478515625 -37.3046875 15.478515625 -25.9765625Q15.478515625 -15.234375 19.04296875 -9.716796875Q22.8515625 -3.7109375 29.443359375 -4.19921875Q35.05859375 -4.638671875 39.111328125 -16.6015625ZM31.396484375 -82.91015625Q34.716796875 -82.91015625 36.62109375 -80.224609375Q37.890625 -78.515625 37.890625 -76.3671875V-75.5859375Q38.330078125 -67.67578125 30.37109375 -60.9375Q30.126953125 -60.7421875 30.029296875 -60.64453125L26.416015625 -62.109375Q30.2734375 -65.8203125 30.76171875 -69.873046875Q28.369140625 -70.068359375 26.7578125 -71.77734375Q24.90234375 -73.6328125 24.90234375 -76.3671875Q24.90234375 -79.78515625 27.5390625 -81.689453125Q29.19921875 -82.91015625 31.396484375 -82.91015625Z"/>
  </g>
</svg>
